<svg width="16" height="16" viewBox="0 0 16 16" fill="none" xmlns="http://www.w3.org/2000/svg">
<rect width="16" height="16" fill="white"/>
<path fill-rule="evenodd" clip-rule="evenodd" d="M11.9325 14.5C11.8313 14.5 11.7295 14.4765 11.6359 14.4287L8.0004 12.5662L4.36361 14.4287C4.1498 14.5391 3.88953 14.5205 3.69289 14.3816C3.49753 14.2428 3.39953 14.0079 3.44026 13.7754L4.13453 9.83278L1.19264 7.04173C1.01891 6.87686 0.956552 6.63079 1.03101 6.40642C1.1061 6.18204 1.30528 6.01841 1.54455 5.98432L5.61151 5.40541L7.42959 1.81728C7.64404 1.39456 8.35613 1.39456 8.57058 1.81728L10.3887 5.40541L14.4556 5.98432C14.6955 6.01841 14.8947 6.18204 14.9692 6.40642C15.0436 6.63079 14.9813 6.87686 14.8075 7.04173L11.8656 9.83278L12.5599 13.7754C12.6006 14.0079 12.5026 14.2428 12.3066 14.3816C12.1953 14.4603 12.0642 14.5 11.9325 14.5Z" fill="#313037"/>
</svg>
