<svg width="16" height="16" viewBox="0 0 16 16" fill="none" xmlns="http://www.w3.org/2000/svg">
<rect width="16" height="16" fill="white"/>
<path fill-rule="evenodd" clip-rule="evenodd" d="M11.9325 14.5C11.8313 14.5 11.7295 14.4765 11.6359 14.4288L8.0004 12.5662L4.36361 14.4288C4.1498 14.5391 3.88953 14.5205 3.69289 14.3816C3.49753 14.2428 3.39953 14.0079 3.44026 13.7755L4.13453 9.8328L1.19264 7.04175C1.01891 6.87688 0.956552 6.63081 1.03101 6.40644C1.1061 6.18206 1.30528 6.01843 1.54455 5.98434L5.61151 5.40543L7.42959 1.8173C7.64404 1.39458 8.35613 1.39458 8.57058 1.8173L10.3887 5.40543L14.4556 5.98434C14.6955 6.01843 14.8947 6.18206 14.9692 6.40644C15.0436 6.63081 14.9813 6.87688 14.8075 7.04175L11.8656 9.8328L12.5599 13.7755C12.6006 14.0079 12.5026 14.2428 12.3066 14.3816C12.1953 14.4604 12.0642 14.5 11.9325 14.5Z" fill="#E7E7E7"/>
</svg>
